<svg width="121" height="44" viewBox="0 0 121 44" fill="none" xmlns="http://www.w3.org/2000/svg">
<path d="M21.64 35L19.912 27.848H10.216L8.53601 35H0.376007L10.408 1.73598H19.96L29.992 35H21.64ZM11.56 22.136H18.568L15.064 7.44798L11.56 22.136Z" fill="#141414"/>
<path d="M50.1445 17.384C52.3525 17.8 54.1445 18.616 55.5205 19.832C56.9285 21.048 57.6325 22.872 57.6325 25.304C57.6325 28.856 56.3525 31.368 53.7925 32.84C51.2645 34.28 47.7125 35 43.1365 35H32.4325V1.73598H41.8405C46.5125 1.73598 50.0805 2.40798 52.5445 3.75198C55.0085 5.06398 56.2405 7.22398 56.2405 10.232C56.2405 12.184 55.6485 13.768 54.4645 14.984C53.3125 16.168 51.8725 16.968 50.1445 17.384ZM40.3045 7.30398V15.032H43.2325C46.5605 15.032 48.2245 13.688 48.2245 11C48.2245 9.65598 47.7765 8.71198 46.8805 8.16798C45.9845 7.59198 44.5605 7.30398 42.6085 7.30398H40.3045ZM43.1845 29.288C45.2645 29.288 46.8325 28.984 47.8885 28.376C48.9765 27.736 49.5205 26.568 49.5205 24.872C49.5205 21.8 47.6005 20.264 43.7605 20.264H40.3045V29.288H43.1845Z" fill="#141414"/>
<path d="M75.6415 0.919983C77.7215 0.919983 79.5615 1.22398 81.1615 1.83198C82.7935 2.43998 84.3295 3.35198 85.7695 4.56798L82.0255 9.03198C81.0335 8.26398 80.0575 7.68798 79.0975 7.30398C78.1375 6.91998 77.1135 6.72798 76.0255 6.72798C73.7855 6.72798 72.0095 7.67198 70.6975 9.55998C69.4175 11.448 68.7775 14.36 68.7775 18.296C68.7775 22.168 69.4175 25.048 70.6975 26.936C72.0095 28.792 73.8175 29.72 76.1215 29.72C77.3375 29.72 78.4415 29.496 79.4335 29.048C80.4255 28.568 81.4975 27.896 82.6495 27.032L86.1535 31.544C84.9055 32.792 83.3855 33.816 81.5935 34.616C79.8335 35.416 77.8815 35.816 75.7375 35.816C72.6655 35.816 69.9935 35.144 67.7215 33.8C65.4495 32.456 63.6735 30.472 62.3935 27.848C61.1455 25.192 60.5215 22.008 60.5215 18.296C60.5215 14.68 61.1615 11.56 62.4415 8.93598C63.7535 6.31198 65.5455 4.32798 67.8175 2.98398C70.1215 1.60798 72.7295 0.919983 75.6415 0.919983Z" fill="#141414"/>
<path d="M98.0849 29.96C98.0849 32.616 97.6049 34.808 96.6449 36.536C95.7169 38.264 94.4689 39.608 92.9009 40.568C91.3649 41.56 89.5249 42.408 87.3809 43.112L85.2689 37.544C86.6769 37 87.7329 36.376 88.4369 35.672C89.1409 34.968 89.6049 34.152 89.8289 33.224C90.0849 32.296 90.2129 31.112 90.2129 29.672V1.73598H98.0849V29.96Z" fill="#141414"/>
<path d="M117.831 8.79198C118.759 8.79198 119.607 8.90398 120.375 9.12798L119.175 16.472C118.215 16.248 117.447 16.136 116.871 16.136C115.367 16.136 114.215 16.664 113.415 17.72C112.647 18.744 112.039 20.296 111.591 22.376V35H104.007V9.51198H110.631L111.255 14.456C111.831 12.696 112.695 11.32 113.847 10.328C115.031 9.30398 116.359 8.79198 117.831 8.79198Z" fill="#141414"/>
</svg>
